<svg xmlns="http://www.w3.org/2000/svg" viewBox="0 0 64 64" fill="none">
  <rect width="64" height="64" rx="12" fill="#111827"/>
  <g stroke="#F8FAFC" stroke-width="3" stroke-linecap="round" stroke-linejoin="round">
    <path d="M20 16 L10 10"/>
    <path d="M44 16 L54 10"/>
    <path d="M16 24 L4 24"/>
    <path d="M48 24 L60 24"/>
    <path d="M16 40 L4 40"/>
    <path d="M48 40 L60 40"/>
    <path d="M20 48 L10 54"/>
    <path d="M44 48 L54 54"/>
    <path d="M24 24 C24 30, 22 34, 20 38"/>
    <path d="M40 24 C40 30, 42 34, 44 38"/>
    <path d="M24 38 C26 42, 30 44, 32 44 C34 44, 38 42, 40 38"/>
    <circle cx="32" cy="32" r="10" fill="#F8FAFC"/>
    <circle cx="29" cy="30" r="2" fill="#111827"/>
    <circle cx="35" cy="30" r="2" fill="#111827"/>
  </g>
</svg>
