<svg xmlns="http://www.w3.org/2000/svg" viewBox="0 0 24 24" fill="currentColor">
  <path d="M12 0.296C5.37 0.296 0 5.666 0 12.294c0 5.292 3.438 9.785 8.207 11.387.6.111.793-.261.793-.578 0-.285-.01-1.04-.015-2.042-3.338.726-4.042-1.415-4.042-1.415-.546-1.387-1.334-1.757-1.334-1.757-1.089-.745.083-.73.083-.73 1.205.085 1.84 1.237 1.84 1.237 1.07 1.834 2.807 1.304 3.492.998.107-.775.418-1.305.762-1.604-2.665-.305-5.468-1.334-5.468-5.93 0-1.312.469-2.382 1.236-3.221-.124-.303-.535-1.524.117-3.176 0 0 1.008-.323 3.3 1.23.957-.266 1.983-.399 3.003-.404 1.02.005 2.047.138 3.006.404 2.291-1.553 3.298-1.23 3.298-1.23.653 1.653.242 2.874.118 3.176.77.84 1.235 1.911 1.235 3.221 0 4.609-2.807 5.625-5.479 5.93.43.372.823 1.103.823 2.223 0 1.606-.015 2.902-.015 3.293 0 .319.192.694.794.577C20.565 22.079 24 17.587 24 12.294 24 5.666 18.63.296 12 .296z"/>
</svg>
